HIERARCHY
ROOT Hips
{
	OFFSET -13.091600 -28.302996 44.698402
	CHANNELS 6 Xposition Yposition Zposition Zrotation Xrotation Yrotation
	JOINT Chest
	{
		OFFSET -0.673000 0.623899 5.369202
		CHANNELS 6 Xposition Yposition Zposition Zrotation Xrotation Yrotation
		JOINT Chest2
		{
			OFFSET 0.000000 0.000000 4.415001
			CHANNELS 6 Xposition Yposition Zposition Zrotation Xrotation Yrotation
			JOINT Neck
			{
				OFFSET 0.000000 0.000002 10.273300
				CHANNELS 6 Xposition Yposition Zposition Zrotation Xrotation Yrotation
				JOINT Head
				{
					OFFSET 0.000000 0.000000 2.173897
					CHANNELS 6 Xposition Yposition Zposition Zrotation Xrotation Yrotation
					End Site
					{
						OFFSET 0.000000 0.000000 9.961800
					}
				}
			}
			JOINT LeftCollar
			{
				OFFSET 2.359900 -0.565201 5.928101
				CHANNELS 6 Xposition Yposition Zposition Zrotation Xrotation Yrotation
				JOINT LeftShoulder
				{
					OFFSET 5.443700 0.000000 0.000000
					CHANNELS 6 Xposition Yposition Zposition Zrotation Xrotation Yrotation
					JOINT LeftElbow
					{
						OFFSET 0.000000 0.000000 -10.615799
						CHANNELS 6 Xposition Yposition Zposition Zrotation Xrotation Yrotation
						JOINT LeftWrist
						{
							OFFSET 0.000000 -0.000002 -13.110302
							CHANNELS 6 Xposition Yposition Zposition Zrotation Xrotation Yrotation
							End Site
							{
								OFFSET 0.000000 0.000000 -2.173901
							}
						}
					}
				}
			}
			JOINT RightCollar
			{
				OFFSET -2.636600 -1.718800 6.889698
				CHANNELS 6 Xposition Yposition Zposition Zrotation Xrotation Yrotation
				JOINT RightShoulder
				{
					OFFSET -4.139101 0.000000 0.000000
					CHANNELS 6 Xposition Yposition Zposition Zrotation Xrotation Yrotation
					JOINT RightElbow
					{
						OFFSET 0.000000 0.000000 -10.471802
						CHANNELS 6 Xposition Yposition Zposition Zrotation Xrotation Yrotation
						JOINT RightWrist
						{
							OFFSET 0.000000 0.000000 -12.281898
							CHANNELS 6 Xposition Yposition Zposition Zrotation Xrotation Yrotation
							End Site
							{
								OFFSET 0.000000 -0.000002 -2.173901
							}
						}
					}
				}
			}
		}
	}
	JOINT LeftHip
	{
		OFFSET 2.273400 0.176701 -2.518002
		CHANNELS 6 Xposition Yposition Zposition Zrotation Xrotation Yrotation
		JOINT LeftKnee
		{
			OFFSET 0.000000 -0.000002 -20.456402
			CHANNELS 6 Xposition Yposition Zposition Zrotation Xrotation Yrotation
			JOINT LeftAnkle
			{
				OFFSET 0.000000 -0.000002 -16.635300
				CHANNELS 6 Xposition Yposition Zposition Zrotation Xrotation Yrotation
				End Site
				{
					OFFSET 0.000000 -8.812399 0.000001
				}
			}
		}
	}
	JOINT RightHip
	{
		OFFSET -1.914800 0.018101 -2.699299
		CHANNELS 6 Xposition Yposition Zposition Zrotation Xrotation Yrotation
		JOINT RightKnee
		{
			OFFSET 0.000000 -0.000002 -20.148901
			CHANNELS 6 Xposition Yposition Zposition Zrotation Xrotation Yrotation
			JOINT RightAnkle
			{
				OFFSET 0.000000 -0.000002 -16.838301
				CHANNELS 6 Xposition Yposition Zposition Zrotation Xrotation Yrotation
				End Site
				{
					OFFSET 0.000000 -8.328398 0.000001
				}
			}
		}
	}
}
MOTION
Frames: 10
Frame Time: 0.041667
-14.628201 19.179010 42.388504 1412.030361 17.381597 4.852384 -0.673000 0.623903 5.369212 -3.241614 11.248012 5.148272 -0.000000 -0.000002 4.415006 -0.681701 -5.901628 -0.658793 0.000001 0.000001 10.273300 50.921116 -0.487608 -3.771604 0.000000 -0.000008 2.173894 2.429350 -2.884964 2.907318 2.359897 -0.565202 5.928101 3.604035 -0.366452 18.172038 5.443699 -0.000001 0.000001 -12.343596 -14.903148 -58.079414 0.000005 -0.000001 -10.615791 610.681203 -160.345480 187.430841 0.000004 -0.000005 -13.110299 58.469302 -365.458397 321.319911 -2.636603 -1.718801 6.889706 182.787788 -185.389967 184.404466 -4.139098 0.000006 0.000006 375.888068 -420.565866 448.759329 0.000002 0.000006 -10.471801 89.119161 -94.572486 -287.488837 -0.000007 0.000004 -12.281898 396.515431 17.958394 75.891086 2.273398 0.176708 -2.518004 -118.064901 -139.032940 -150.378704 0.000003 0.000000 -20.456396 109.914327 126.807352 -125.363382 -0.000001 -0.000002 -16.635302 44.076901 -3.802063 22.300865 -1.914799 0.018104 -2.699302 34.757098 195.590677 55.397943 0.000007 -0.000005 -20.148903 175.313006 49.672530 -135.303493 -0.000005 -0.000003 -16.838303 -47.695494 3.651550 -15.167174
-14.585499 19.174414 42.358704 1411.924356 17.227945 4.829736 -0.673004 0.623903 5.369208 -3.128255 11.461009 5.084941 0.000000 0.000003 4.415005 -0.743885 -5.933343 -0.663482 0.000005 0.000002 10.273302 50.921618 -0.364082 -3.666404 0.000002 -0.000005 2.173907 2.399680 -2.944416 2.950971 2.359900 -0.565201 5.928101 3.578687 -0.301856 18.316990 5.443690 -0.000004 0.000002 -12.373590 -14.754918 -58.070965 0.000003 0.000001 -10.615792 611.080305 -160.164726 187.581419 0.000000 -0.000004 -13.110292 58.203689 -365.440584 322.035933 -2.636600 -1.718802 6.889699 182.751711 -185.384243 184.506468 -4.139095 -0.000001 0.000003 375.695894 -420.682416 448.589613 0.000001 0.000000 -10.471798 89.017111 -94.536962 -287.667842 0.000000 -0.000001 -12.281899 396.510950 17.975081 75.826172 2.273398 0.176708 -2.518004 -118.664114 -138.972916 -150.618567 0.000001 -0.000003 -20.456394 109.951142 127.051586 -125.344217 -0.000007 -0.000003 -16.635302 44.596084 -3.491549 22.552907 -1.914802 0.018117 -2.699297 34.700820 195.543986 55.361972 0.000008 -0.000008 -20.148907 174.725733 49.552964 -134.860077 0.000002 -0.000002 -16.838303 -47.964054 3.493493 -15.347816
-14.541500 19.166010 42.328201 1411.831684 17.102531 4.772564 -0.673000 0.623899 5.369209 -3.055381 11.630590 5.062335 0.000005 0.000001 4.415002 -0.781955 -5.969596 -0.668274 0.000004 0.000001 10.273302 50.952480 -0.285605 -3.602650 -0.000002 -0.000006 2.173900 2.333615 -3.012277 3.054746 2.359897 -0.565204 5.928095 3.576240 -0.237692 18.433979 5.443696 -0.000006 -0.000002 -12.442812 -14.528157 -58.019349 0.000001 -0.000004 -10.615786 611.489624 -159.947335 187.715318 0.000003 -0.000008 -13.110289 58.041397 -365.418645 322.088171 -2.636602 -1.718804 6.889698 182.753582 -185.430921 184.544212 -4.139097 -0.000008 -0.000012 375.650323 -420.865246 448.612890 0.000008 0.000005 -10.471799 89.449947 -94.502880 -287.334037 0.000004 0.000001 -12.281899 396.524419 17.954692 75.846539 2.273398 0.176701 -2.518009 -119.174302 -138.945445 -150.702032 0.000002 -0.000002 -20.456394 109.968204 127.243583 -125.415852 -0.000007 -0.000006 -16.635300 45.171968 -3.118672 22.755861 -1.914797 0.018107 -2.699308 34.618056 195.467733 55.337779 0.000002 -0.000006 -20.148909 173.868694 49.219211 -134.189981 0.000001 -0.000003 -16.838295 -48.440740 3.328628 -15.627649
-14.496604 19.152006 42.299904 1411.734750 16.979014 4.705425 -0.672999 0.623895 5.369206 -2.986833 11.788258 5.061513 0.000002 -0.000002 4.415009 -0.808045 -6.004578 -0.672738 0.000006 -0.000001 10.273300 50.990101 -0.251892 -3.561387 0.000001 -0.000002 2.173898 2.280094 -3.056760 3.170069 2.359902 -0.565202 5.928102 3.568188 -0.173138 18.526581 5.443695 -0.000008 0.000000 -12.501925 -14.340334 -57.957720 0.000001 0.000000 -10.615793 611.814796 -159.762359 187.807389 0.000005 -0.000005 -13.110296 57.907751 -365.398892 322.262013 -2.636597 -1.718803 6.889703 182.782132 -185.501900 184.561000 -4.139095 0.000001 -0.000001 375.598632 -421.047776 448.643325 -0.000004 0.000003 -10.471798 89.945696 -94.444823 -286.894965 0.000001 0.000004 -12.281898 396.547041 17.959982 75.868901 2.273399 0.176704 -2.518004 -119.708436 -138.924955 -150.739201 0.000001 0.000000 -20.456398 110.112116 127.331187 -125.644800 -0.000005 -0.000003 -16.635302 45.728485 -2.667434 22.999646 -1.914793 0.018104 -2.699304 34.537173 195.426124 55.340621 -0.000004 -0.000007 -20.148905 172.988310 48.886266 -133.504503 -0.000004 -0.000000 -16.838297 -48.857173 3.201767 -15.948983
-14.451601 19.132414 42.272408 1411.603501 16.842695 4.633956 -0.673000 0.623903 5.369203 -2.925075 11.950595 5.097263 0.000003 -0.000001 4.415006 -0.799762 -6.034007 -0.677120 0.000004 -0.000001 10.273302 51.060834 -0.272020 -3.546762 -0.000002 -0.000001 2.173901 2.258318 -3.049471 3.264217 2.359900 -0.565206 5.928100 3.633376 -0.168133 18.527817 5.443694 -0.000006 0.000004 -12.544712 -14.190028 -57.805045 0.000001 -0.000002 -10.615787 612.005713 -159.610606 187.869093 0.000002 -0.000007 -13.110298 57.757364 -365.360288 322.488775 -2.636600 -1.718805 6.889698 182.824165 -185.567320 184.595425 -4.139099 0.000002 0.000004 375.445144 -421.221782 448.565188 0.000000 0.000011 -10.471799 90.039727 -94.382955 -286.798714 -0.000001 -0.000003 -12.281900 396.561412 17.956461 75.897766 2.273397 0.176708 -2.518001 -120.104054 -138.939558 -150.672525 0.000002 -0.000002 -20.456396 110.187385 127.299549 -125.872299 -0.000008 -0.000005 -16.635300 46.238834 -2.259152 23.197097 -1.914798 0.018109 -2.699303 34.469574 195.468594 55.375229 0.000000 -0.000005 -20.148907 172.261892 48.755557 -132.988960 0.000003 -0.000003 -16.838299 -49.067478 3.156679 -16.121367
-14.404599 19.109003 42.246803 1411.414442 16.745959 4.510849 -0.673000 0.623896 5.369208 -2.882790 12.045403 5.193725 0.000004 -0.000001 4.415006 -0.744854 -6.038544 -0.680344 0.000003 -0.000002 10.273293 51.190953 -0.273416 -3.524461 -0.000001 -0.000005 2.173897 2.239986 -3.027368 3.307568 2.359898 -0.565205 5.928095 3.759850 -0.264399 18.532783 5.443703 -0.000005 -0.000001 -12.577142 -13.988291 -57.625056 -0.000002 -0.000003 -10.615784 612.058825 -159.480423 187.878259 0.000000 -0.000003 -13.110296 57.682245 -365.317531 322.697642 -2.636603 -1.718802 6.889696 182.900636 -185.623313 184.743653 -4.139096 -0.000004 -0.000000 375.094619 -421.374423 448.259305 -0.000005 -0.000002 -10.471799 90.107919 -94.294019 -286.624189 0.000006 -0.000006 -12.281895 396.517452 17.962528 75.934983 2.273399 0.176705 -2.518003 -120.293688 -139.012846 -150.441856 0.000000 0.000002 -20.456402 110.192883 127.156525 -126.065006 -0.000005 -0.000007 -16.635298 46.689712 -1.932981 23.334728 -1.914799 0.018106 -2.699304 34.437213 195.514179 55.353684 0.000002 0.000000 -20.148899 171.725928 48.745066 -132.616114 -0.000001 -0.000000 -16.838301 -49.112844 3.166941 -16.136906
-14.357899 19.081915 42.222202 1411.192051 16.672053 4.359009 -0.673000 0.623900 5.369209 -2.846508 12.103495 5.360391 0.000003 -0.000004 4.415006 -0.680542 -6.036804 -0.682700 0.000001 0.000007 10.273302 51.359242 -0.303945 -3.528874 0.000000 -0.000005 2.173891 2.243925 -2.990053 3.324423 2.359895 -0.565197 5.928098 3.948614 -0.411370 18.508998 5.443698 -0.000005 0.000002 -12.534358 -13.889640 -57.426400 0.000005 -0.000001 -10.615789 611.817309 -159.352029 187.839751 0.000003 -0.000008 -13.110299 57.706042 -365.262042 322.872604 -2.636601 -1.718800 6.889698 182.948447 -185.645744 184.830930 -4.139092 -0.000005 -0.000000 374.822067 -421.506465 447.954842 0.000003 0.000006 -10.471801 89.652373 -94.188179 -286.954006 0.000000 -0.000007 -12.281899 396.395848 18.010302 76.017622 2.273398 0.176704 -2.518001 -120.467038 -139.092513 -150.209397 0.000004 0.000000 -20.456394 110.144266 127.041437 -126.158594 -0.000004 -0.000002 -16.635300 47.158119 -1.698343 23.482409 -1.914797 0.018102 -2.699296 34.427449 195.568998 55.310213 -0.000000 -0.000000 -20.148909 171.396330 48.877203 -132.402971 0.000002 -0.000001 -16.838305 -48.971493 3.229050 -16.000288
-14.314599 19.052511 42.199703 1410.957092 16.571832 4.220954 -0.672999 0.623895 5.369210 -2.761798 12.193844 5.513567 0.000001 -0.000001 4.415001 -0.633528 -6.043173 -0.686068 0.000002 -0.000004 10.273302 51.535434 -0.312231 -3.529712 0.000002 -0.000004 2.173898 2.279683 -2.945537 3.302947 2.359895 -0.565203 5.928101 4.125576 -0.557725 18.501886 5.443697 0.000000 0.000000 -12.512749 -13.792023 -57.285391 -0.000001 -0.000002 -10.615789 611.556232 -159.267294 187.785751 0.000002 -0.000005 -13.110298 57.674179 -365.040772 322.791107 -2.636606 -1.718807 6.889699 182.948488 -185.619475 184.934038 -4.139094 -0.000006 0.000007 374.514381 -421.668094 447.423071 -0.000005 -0.000003 -10.471798 88.626165 -93.948508 -287.943181 0.000009 -0.000011 -12.281897 396.233945 18.081391 76.112780 2.273401 0.176701 -2.517998 -120.725356 -139.164353 -150.100825 -0.000000 -0.000002 -20.456396 110.164838 126.932427 -126.230639 -0.000006 -0.000003 -16.635302 47.587916 -1.535496 23.630948 -1.914796 0.018101 -2.699307 34.447181 195.656588 55.297533 0.000005 -0.000008 -20.148903 171.246407 49.074554 -132.331145 0.000002 -0.000001 -16.838303 -48.688139 3.283378 -15.859930
-14.273899 19.023012 42.177704 1410.728472 16.483330 4.093499 -0.673001 0.623899 5.369205 -2.667330 12.278953 5.659526 0.000006 -0.000004 4.415005 -0.608063 -6.049122 -0.689209 0.000003 0.000003 10.273293 51.735835 -0.334345 -3.533355 -0.000001 0.000000 2.173903 2.317124 -2.909712 3.288418 2.359897 -0.565199 5.928092 4.339635 -0.712712 18.470005 5.443702 0.000002 0.000001 -12.513056 -13.709375 -57.152790 0.000001 0.000002 -10.615788 611.379631 -159.214114 187.769919 0.000003 -0.000009 -13.110296 57.634133 -364.958837 322.776271 -2.636600 -1.718797 6.889697 182.923476 -185.556487 185.023882 -4.139094 0.000003 0.000004 374.280515 -421.854995 447.202046 -0.000001 -0.000001 -10.471799 87.684186 -93.999645 -288.931591 -0.000004 -0.000003 -12.281900 396.023930 18.181446 76.248892 2.273398 0.176703 -2.518001 -120.917926 -139.232231 -149.991173 0.000000 0.000001 -20.456398 110.175644 126.799607 -126.260145 -0.000003 -0.000008 -16.635298 48.078166 -1.371929 23.750646 -1.914796 0.018109 -2.699302 34.470302 195.703826 55.306620 0.000004 -0.000003 -20.148905 171.154241 49.205065 -132.288716 -0.000003 -0.000001 -16.838303 -48.454745 3.296482 -15.709538
-14.233500 18.993605 42.157806 1410.490235 16.447324 3.973760 -0.673000 0.623898 5.369209 -2.531366 12.322112 5.790769 0.000005 0.000001 4.415008 -0.625921 -6.061704 -0.692208 0.000005 -0.000001 10.273299 51.959308 -0.369193 -3.530321 0.000001 -0.000005 2.173895 2.362999 -2.887548 3.282604 2.359902 -0.565200 5.928100 4.554183 -0.829164 18.468763 5.443699 -0.000002 0.000002 -12.574225 -13.610611 -57.085632 0.000002 0.000000 -10.615794 611.230132 -159.158598 187.738268 0.000004 -0.000003 -13.110299 57.699061 -364.925232 322.676250 -2.636600 -1.718805 6.889701 182.859914 -185.471260 185.043348 -4.139094 -0.000006 -0.000001 374.004357 -422.038809 446.785623 0.000002 -0.000000 -10.471803 85.146552 -93.915279 -291.611156 0.000008 0.000000 -12.281896 395.787114 18.330295 76.425705 2.273400 0.176702 -2.518000 -121.053068 -139.285302 -149.861467 0.000003 0.000000 -20.456390 110.178758 126.714503 -126.268505 -0.000007 -0.000005 -16.635300 48.417285 -1.293173 23.855988 -1.914796 0.018111 -2.699298 34.516166 195.656834 55.302703 -0.000005 -0.000001 -20.148903 170.958993 49.075138 -132.102757 -0.000001 -0.000003 -16.838299 -48.406647 3.224352 -15.744672
